<?xml version="1.0" encoding="UTF-8" standalone="no"?>
<svg
   xmlns:dc="http://purl.org/dc/elements/1.1/"
   xmlns:cc="http://creativecommons.org/ns#"
   xmlns:rdf="http://www.w3.org/1999/02/22-rdf-syntax-ns#"
   xmlns:svg="http://www.w3.org/2000/svg"
   xmlns="http://www.w3.org/2000/svg"
   xmlns:sodipodi="http://sodipodi.sourceforge.net/DTD/sodipodi-0.dtd"
   xmlns:inkscape="http://www.inkscape.org/namespaces/inkscape"
   inkscape:version="1.0 (4035a4fb49, 2020-05-01)"
   sodipodi:docname="ActionCut.svg"
   id="svg4"
   version="1.1"
   width="16"
   viewBox="0 0 16 16"
   height="16">
  <metadata
     id="metadata10">
    <rdf:RDF>
      <cc:Work
         rdf:about="">
        <dc:format>image/svg+xml</dc:format>
        <dc:type
           rdf:resource="http://purl.org/dc/dcmitype/StillImage" />
        <dc:title></dc:title>
      </cc:Work>
    </rdf:RDF>
  </metadata>
  <defs
     id="defs8" />
  <sodipodi:namedview
     inkscape:current-layer="svg4"
     inkscape:window-maximized="0"
     inkscape:window-y="37"
     inkscape:window-x="0"
     inkscape:cy="10.625008"
     inkscape:cx="0.082800087"
     inkscape:zoom="19.64431"
     showgrid="false"
     id="namedview6"
     inkscape:window-height="1041"
     inkscape:window-width="1916"
     inkscape:pageshadow="2"
     inkscape:pageopacity="0"
     guidetolerance="10"
     gridtolerance="10"
     objecttolerance="10"
     borderopacity="1"
     bordercolor="#666666"
     pagecolor="#ffffff" />
  <path
     d="M 7.9365236,1.5879289 A 6.4117031,6.4117031 0 0 0 1.5888673,8.0000383 6.4117031,6.4117031 0 0 0 5.2900392,13.810585 6.4117031,6.4117031 0 0 1 2.1884767,8.3183977 6.4117031,6.4117031 0 0 1 8.5380861,1.9082414 a 6.4117031,6.4117031 0 0 1 0.0625,0 6.4117031,6.4117031 0 0 1 2.7070319,0.5996094 6.4117031,6.4117031 0 0 0 -3.3085944,-0.9199219 6.4117031,6.4117031 0 0 0 -0.0625,0 z M 9.4150392,2.2480852 A 6.4117031,6.4117031 0 0 0 3.0654298,8.6582414 6.4117031,6.4117031 0 0 0 6.1474611,14.136757 6.4117031,6.4117031 0 0 0 7.9990236,14.412147 6.4117031,6.4117031 0 0 0 14.411133,8.0000383 6.4117031,6.4117031 0 0 0 11.327149,2.5195695 6.4117031,6.4117031 0 0 0 9.4775392,2.2480852 a 6.4117031,6.4117031 0 0 0 -0.0625,0 z"
     style="fill:#ffff00;fill-opacity:0.996078;stroke-width:0.402618"
     id="path835" />
</svg>
